<svg width="30" height="30" viewBox="0 0 30 30" fill="none" xmlns="http://www.w3.org/2000/svg">
<path d="M15 1.20001C7.38553 1.20001 1.19995 7.38559 1.19995 15C1.19995 22.6144 7.38553 28.8 15 28.8C22.6144 28.8 28.7999 22.6144 28.7999 15C28.7999 7.38559 22.6144 1.20001 15 1.20001ZM15 2.40001C21.9658 2.40001 27.5999 8.03412 27.5999 15C27.5999 21.9659 21.9658 27.6 15 27.6C8.03406 27.6 2.39995 21.9659 2.39995 15C2.39995 8.03412 8.03406 2.40001 15 2.40001ZM22.2234 6.59415C22.1362 6.59164 22.0495 6.60816 21.9694 6.64257C21.8892 6.67697 21.8176 6.72843 21.7593 6.79337L15.7101 13.3465C15.4858 13.25 15.2442 13.2002 15 13.2C14.5226 13.2 14.0647 13.3897 13.7272 13.7272C13.3896 14.0648 13.2 14.5226 13.2 15C13.2 15.4774 13.3896 15.9352 13.7272 16.2728C14.0647 16.6104 14.5226 16.8 15 16.8C15.1005 16.8002 15.2008 16.792 15.3 16.7754L17.475 20.6918C17.5133 20.7608 17.5648 20.8215 17.6266 20.8705C17.6884 20.9196 17.7592 20.956 17.8351 20.9776C17.9109 20.9993 17.9903 21.0058 18.0686 20.9968C18.147 20.9878 18.2228 20.9634 18.2918 20.9251C18.3607 20.8868 18.4215 20.8352 18.4705 20.7734C18.5195 20.7116 18.5559 20.6408 18.5776 20.5649C18.5992 20.4891 18.6057 20.4097 18.5967 20.3313C18.5877 20.253 18.5633 20.1772 18.525 20.1082L16.3476 16.1906C16.6385 15.8622 16.7993 15.4388 16.8 15C16.7998 14.7071 16.7282 14.4187 16.5914 14.1598L22.6406 7.60665C22.7202 7.52264 22.7738 7.41739 22.7949 7.30361C22.8161 7.18982 22.8039 7.07234 22.7598 6.96533C22.7157 6.85832 22.6416 6.76634 22.5464 6.70048C22.4513 6.63463 22.3391 6.5977 22.2234 6.59415Z" fill="black"/>
</svg>
