<svg width="30" height="30" viewBox="0 0 30 30" fill="none" xmlns="http://www.w3.org/2000/svg">
<path d="M15 1.20001C7.38552 1.20001 1.19995 7.38559 1.19995 15C1.19995 22.6144 7.38552 28.8 15 28.8C22.6144 28.8 28.7999 22.6144 28.7999 15C28.7999 7.38559 22.6144 1.20001 15 1.20001ZM15 2.40001C21.9658 2.40001 27.5999 8.03412 27.5999 15C27.5999 21.9659 21.9658 27.6 15 27.6C8.03405 27.6 2.39995 21.9659 2.39995 15C2.39995 14.7823 2.40548 14.5657 2.41636 14.3508C2.75341 7.68729 8.25173 2.40001 15 2.40001ZM14.9906 3.59181C14.8317 3.59429 14.6802 3.65973 14.5695 3.77376C14.4587 3.88778 14.3978 4.04108 14.4 4.20001V6.63282C12.6412 6.75796 10.9196 7.43429 9.50737 8.659L7.78706 6.93868C7.73115 6.88121 7.66428 6.83552 7.59041 6.80432C7.51654 6.77312 7.43717 6.75705 7.35698 6.75704C7.23762 6.75707 7.12098 6.7927 7.02198 6.85937C6.92297 6.92604 6.8461 7.02072 6.80118 7.1313C6.75627 7.24189 6.74536 7.36336 6.76984 7.48018C6.79432 7.59701 6.85309 7.70387 6.93862 7.78712L9.06089 9.90939C9.12162 9.97261 9.19546 10.0218 9.27723 10.0534C9.359 10.085 9.4467 10.0983 9.53417 10.0924C9.62163 10.0865 9.70674 10.0615 9.7835 10.0191C9.86026 9.97676 9.92681 9.91811 9.97847 9.84728C11.3542 8.50607 13.126 7.82407 14.9074 7.80118C14.968 7.81052 15.0296 7.81052 15.0902 7.80118C16.8708 7.82345 18.6432 8.50424 20.0191 9.84376C20.0704 9.91523 20.1369 9.97452 20.2137 10.0174C20.2906 10.0604 20.3759 10.0859 20.4637 10.0921C20.5515 10.0984 20.6395 10.0853 20.7217 10.0537C20.8038 10.0221 20.878 9.97284 20.939 9.90939L23.0613 7.78712C23.148 7.70284 23.2072 7.59434 23.2312 7.47583C23.2551 7.35732 23.2428 7.23432 23.1956 7.12297C23.1485 7.01162 23.0688 6.9171 22.9671 6.85181C22.8653 6.78651 22.7462 6.75348 22.6253 6.75704C22.4695 6.76169 22.3215 6.82684 22.2128 6.93868L20.4937 8.65782C19.0815 7.43344 17.3586 6.75794 15.6 6.63282V4.20001C15.601 4.11974 15.586 4.04006 15.5558 3.9657C15.5255 3.89133 15.4807 3.82379 15.4238 3.76708C15.367 3.71037 15.2994 3.66563 15.225 3.63553C15.1506 3.60542 15.0708 3.59056 14.9906 3.59181ZM4.70737 12.3352V19.2645H7.83979V18.0961H6.05854V16.2176H7.63706V15.0973H6.05854V13.5047H7.72144V12.3352H4.70737ZM22.3664 12.3352V19.2645H23.7164V16.4063H25.2785V15.2859H23.7164V13.5047H25.3804V12.3352H22.3664ZM20.3484 13.6945C20.3086 13.6888 20.2644 13.697 20.223 13.7238L14.3601 17.5172C14.0797 17.617 13.8325 17.7725 13.6511 17.9766C13.3412 18.3253 13.2 18.7667 13.2 19.2C13.2 19.6333 13.3412 20.0747 13.6511 20.4234C13.9611 20.7722 14.45 21 15 21C15.5499 21 16.0388 20.7722 16.3488 20.4234C16.5106 20.2414 16.6242 20.0335 16.698 19.8152L20.4761 13.977C20.5567 13.8528 20.4679 13.7117 20.3484 13.6945ZM15 18.6C15.25 18.6 15.3611 18.6722 15.4511 18.7734C15.5412 18.8747 15.6 19.0333 15.6 19.2C15.6 19.3667 15.5412 19.5253 15.4511 19.6266C15.3611 19.7279 15.25 19.8 15 19.8C14.75 19.8 14.6388 19.7279 14.5488 19.6266C14.4587 19.5253 14.4 19.3667 14.4 19.2C14.4 19.0333 14.4587 18.8747 14.5488 18.7734C14.6388 18.6722 14.75 18.6 15 18.6Z" fill="black"/>
</svg>
