<svg width="30" height="30" viewBox="0 0 30 30" fill="none" xmlns="http://www.w3.org/2000/svg">
<path d="M15 1.20001C12.3563 1.20001 10.2 3.35626 10.2 6.00001C10.2 8.64376 12.3563 10.8 15 10.8C17.6438 10.8 19.8 8.64376 19.8 6.00001C19.8 3.35626 17.6438 1.20001 15 1.20001ZM15 2.40001C16.9946 2.40001 18.6 4.00548 18.6 6.00001C18.6 7.99454 16.9946 9.60001 15 9.60001C13.0055 9.60001 11.4 7.99454 11.4 6.00001C11.4 4.00548 13.0055 2.40001 15 2.40001ZM11.9906 11.9906C11.9602 11.993 11.9321 11.9953 11.9016 12H10.8C9.6844 12 8.75393 12.3891 8.0719 12.8203C7.38987 13.2516 6.96331 13.7016 6.7594 13.9711C5.62971 15.4711 3.1219 19.5844 3.1219 19.5844C3.11956 19.5867 3.11721 19.5891 3.11487 19.5938C2.65784 20.3766 2.38831 21.1383 2.43752 21.9164C2.48674 22.6922 2.87346 23.4188 3.52971 24.0727L6.30002 26.8453C7.08987 27.6352 8.32268 27.6656 9.19221 27.0117L9.30237 28.2539C9.31877 28.4695 9.44768 28.6594 9.64456 28.7531C9.84143 28.8445 10.0711 28.8258 10.2492 28.6992C10.425 28.5727 10.5211 28.3617 10.4977 28.1461L9.59534 17.9461C9.5719 17.6977 9.39846 17.4891 9.1594 17.4234C8.91799 17.3555 8.66018 17.4445 8.51252 17.6461L5.93909 21.1734C5.76565 21.4125 5.79143 21.743 6.00002 21.9516L8.5969 24.5484C9.00237 24.9539 9.00237 25.5914 8.5969 25.9969C8.19143 26.4024 7.55393 26.4024 7.15081 25.9969L4.37815 23.2242C3.86018 22.7063 3.66331 22.282 3.63518 21.8367C3.60706 21.3938 3.76174 20.8664 4.15315 20.1984C4.16252 20.182 6.71721 16.0195 7.71799 14.693C7.71799 14.693 7.71799 14.693 7.71799 14.6906C7.79299 14.5922 8.17034 14.1774 8.71174 13.8352C9.25549 13.493 9.96565 13.2 10.8 13.2H11.5992L14.1305 19.275L13.2211 21.7008C13.1485 21.8977 13.2563 22.1133 13.4625 22.1813L15.2039 22.7789C15.4102 22.8469 15.6352 22.7461 15.7102 22.5492L16.7766 19.6992C16.8492 19.5024 16.7438 19.2867 16.5375 19.2188L15.975 19.0242L18.4008 13.2H19.2C20.0344 13.2 20.7446 13.493 21.2883 13.8352C21.8297 14.1774 22.2071 14.5922 22.2821 14.6906C22.2821 14.693 22.2821 14.693 22.2821 14.693C23.2828 16.0195 25.8375 20.182 25.8469 20.1984C26.2383 20.8664 26.393 21.3938 26.3649 21.8367C26.3367 22.282 26.1399 22.7063 25.6219 23.2242L22.8492 25.9969C22.4461 26.4024 21.8086 26.4024 21.4031 25.9969C20.9977 25.5914 20.9977 24.9539 21.4031 24.5484L24 21.9516C24.2086 21.743 24.2344 21.4125 24.0586 21.1734L21.4875 17.6461C21.3399 17.4445 21.0821 17.3555 20.8406 17.4234C20.6016 17.4891 20.4281 17.6977 20.4047 17.9461L19.5024 28.1461C19.4789 28.3617 19.575 28.5727 19.7508 28.6992C19.9289 28.8258 20.1586 28.8445 20.3555 28.7531C20.5524 28.6594 20.6813 28.4695 20.6977 28.2539L20.8078 27.0117C21.6774 27.6656 22.9102 27.6352 23.7 26.8453L26.4727 24.0727C27.1266 23.4188 27.5133 22.6922 27.5625 21.9164C27.6117 21.1383 27.3422 20.3766 26.8852 19.5938C26.8828 19.5891 26.8805 19.5867 26.8781 19.5844C26.8781 19.5844 24.3703 15.4711 23.2406 13.9711C23.0367 13.7016 22.6102 13.2516 21.9281 12.8203C21.2461 12.3891 20.3156 12 19.2 12H12.0938C12.0586 11.9953 12.0258 11.9906 11.9906 11.9906ZM12.9 13.2H17.1L15 18.2391L12.9 13.2ZM8.54065 19.6453L8.84768 23.1L7.21174 21.4664L8.54065 19.6453ZM21.4594 19.6453L22.7883 21.4664L21.1524 23.1L21.4594 19.6453Z" fill="black"/>
</svg>
