<svg width="20" height="20" viewBox="0 0 20 20" fill="none" xmlns="http://www.w3.org/2000/svg">
<path d="M8.39989 0.999996C7.7417 0.999996 7.19989 1.54181 7.19989 2.2V3H4.06161C4.03915 2.99624 4.01641 2.99441 3.99364 2.99453C3.97426 2.99495 3.95494 2.99678 3.93582 3H3.19989C3.14688 2.99925 3.09426 3.00904 3.04507 3.0288C2.99588 3.04857 2.95111 3.07791 2.91337 3.11513C2.87562 3.15235 2.84564 3.1967 2.82518 3.2456C2.80473 3.2945 2.79419 3.34699 2.79419 3.4C2.79419 3.45301 2.80473 3.50549 2.82518 3.55439C2.84564 3.60329 2.87562 3.64764 2.91337 3.68486C2.95111 3.72208 2.99588 3.75142 3.04507 3.77119C3.09426 3.79095 3.14688 3.80075 3.19989 3.8H3.59989V18.2C3.59989 18.8582 4.1417 19.4 4.79989 19.4H15.1999C15.8581 19.4 16.3999 18.8582 16.3999 18.2V3.8H16.7999C16.8529 3.80075 16.9055 3.79095 16.9547 3.77119C17.0039 3.75142 17.0487 3.72208 17.0864 3.68486C17.1242 3.64764 17.1541 3.60329 17.1746 3.55439C17.195 3.50549 17.2056 3.45301 17.2056 3.4C17.2056 3.34699 17.195 3.2945 17.1746 3.2456C17.1541 3.1967 17.1242 3.15235 17.0864 3.11513C17.0487 3.07791 17.0039 3.04857 16.9547 3.0288C16.9055 3.00904 16.8529 2.99925 16.7999 3H16.0671C16.0239 2.99286 15.9798 2.99286 15.9366 3H12.7999V2.2C12.7999 1.54181 12.2581 0.999996 11.5999 0.999996H8.39989ZM8.39989 1.8H11.5999C11.8217 1.8 11.9999 1.97818 11.9999 2.2V3H7.99989V2.2C7.99989 1.97818 8.17807 1.8 8.39989 1.8ZM4.39989 3.8H7.5327C7.57589 3.80714 7.61997 3.80714 7.66317 3.8H12.3327C12.3759 3.80714 12.42 3.80714 12.4632 3.8H15.5999V18.2C15.5999 18.4218 15.4217 18.6 15.1999 18.6H4.79989C4.57807 18.6 4.39989 18.4218 4.39989 18.2V3.8ZM7.59364 5.79453C7.48769 5.79618 7.38672 5.83981 7.3129 5.91583C7.23908 5.99184 7.19843 6.09404 7.19989 6.2V16.2C7.19914 16.253 7.20893 16.3056 7.22869 16.3548C7.24846 16.404 7.2778 16.4488 7.31502 16.4865C7.35224 16.5243 7.39659 16.5542 7.44549 16.5747C7.49439 16.5952 7.54688 16.6057 7.59989 16.6057C7.6529 16.6057 7.70538 16.5952 7.75428 16.5747C7.80318 16.5542 7.84753 16.5243 7.88475 16.4865C7.92197 16.4488 7.95131 16.404 7.97108 16.3548C7.99084 16.3056 8.00064 16.253 7.99989 16.2V6.2C8.00062 6.14648 7.99061 6.09336 7.97044 6.04379C7.95027 5.99421 7.92036 5.94918 7.88248 5.91138C7.8446 5.87357 7.79952 5.84374 7.7499 5.82367C7.70029 5.8036 7.64715 5.79369 7.59364 5.79453ZM9.99364 5.79453C9.88769 5.79618 9.78672 5.83981 9.7129 5.91583C9.63908 5.99184 9.59843 6.09404 9.59989 6.2V16.2C9.59914 16.253 9.60893 16.3056 9.62869 16.3548C9.64846 16.404 9.6778 16.4488 9.71502 16.4865C9.75224 16.5243 9.79659 16.5542 9.84549 16.5747C9.89439 16.5952 9.94688 16.6057 9.99989 16.6057C10.0529 16.6057 10.1054 16.5952 10.1543 16.5747C10.2032 16.5542 10.2475 16.5243 10.2847 16.4865C10.322 16.4488 10.3513 16.404 10.3711 16.3548C10.3908 16.3056 10.4006 16.253 10.3999 16.2V6.2C10.4006 6.14648 10.3906 6.09336 10.3704 6.04379C10.3503 5.99421 10.3204 5.94918 10.2825 5.91138C10.2446 5.87357 10.1995 5.84374 10.1499 5.82367C10.1003 5.8036 10.0471 5.79369 9.99364 5.79453ZM12.3936 5.79453C12.2877 5.79618 12.1867 5.83981 12.1129 5.91583C12.0391 5.99184 11.9984 6.09404 11.9999 6.2V16.2C11.9991 16.253 12.0089 16.3056 12.0287 16.3548C12.0485 16.404 12.0778 16.4488 12.115 16.4865C12.1522 16.5243 12.1966 16.5542 12.2455 16.5747C12.2944 16.5952 12.3469 16.6057 12.3999 16.6057C12.4529 16.6057 12.5054 16.5952 12.5543 16.5747C12.6032 16.5542 12.6475 16.5243 12.6847 16.4865C12.722 16.4488 12.7513 16.404 12.7711 16.3548C12.7908 16.3056 12.8006 16.253 12.7999 16.2V6.2C12.8006 6.14648 12.7906 6.09336 12.7704 6.04379C12.7503 5.99421 12.7204 5.94918 12.6825 5.91138C12.6446 5.87357 12.5995 5.84374 12.5499 5.82367C12.5003 5.8036 12.4471 5.79369 12.3936 5.79453Z" fill="#FF0B37"/>
</svg>
