<svg width="20" height="20" viewBox="0 0 20 20" fill="none" xmlns="http://www.w3.org/2000/svg">
<path d="M10 0.999996C4.92386 0.999996 0.800049 5.12381 0.800049 10.2C0.800049 11.8316 1.24752 13.3543 1.9938 14.6836L0.814893 18.8922C0.796058 18.9595 0.795207 19.0306 0.812424 19.0984C0.829641 19.1662 0.864325 19.2283 0.913017 19.2785C0.961708 19.3287 1.02271 19.3652 1.08993 19.3845C1.15715 19.4037 1.22826 19.4051 1.29614 19.3883L5.68442 18.3008C6.9739 18.9892 8.43709 19.4 10 19.4C15.0762 19.4 19.2 15.2762 19.2 10.2C19.2 5.12381 15.0762 0.999996 10 0.999996ZM10 1.8C14.6439 1.8 18.4 5.55618 18.4 10.2C18.4 14.8438 14.6439 18.6 10 18.6C8.51126 18.6 7.1169 18.2119 5.90474 17.5336C5.81608 17.4841 5.7119 17.4701 5.61333 17.4945L1.77036 18.4469L2.80083 14.7703C2.81558 14.7184 2.81965 14.6639 2.8128 14.6104C2.80595 14.5568 2.78833 14.5052 2.76099 14.4586C2.02432 13.2094 1.60005 11.756 1.60005 10.2C1.60005 5.55618 5.35624 1.8 10 1.8ZM6.65708 5.4C6.40066 5.4 6.03447 5.49539 5.73364 5.81953C5.55296 6.01422 4.80005 6.7478 4.80005 8.0375C4.80005 9.3821 5.73261 10.5423 5.84536 10.6914H5.84614V10.6922C5.83545 10.6781 5.98926 10.9009 6.19458 11.168C6.3999 11.4351 6.68701 11.7859 7.04771 12.1656C7.76909 12.9252 8.78336 13.803 10.0422 14.3398C10.622 14.5867 11.0793 14.7358 11.4258 14.8445C12.068 15.0462 12.6529 15.0155 13.0922 14.9508C13.4211 14.9023 13.7828 14.7444 14.1407 14.518C14.4985 14.2915 14.8493 14.0099 15.004 13.582C15.1148 13.2753 15.1711 12.9918 15.1915 12.7586C15.2016 12.642 15.2029 12.539 15.1954 12.4437C15.1878 12.3485 15.1959 12.2755 15.1071 12.1297C14.9209 11.8239 14.71 11.8159 14.4899 11.707C14.3676 11.6465 14.0195 11.4765 13.6704 11.3102C13.3216 11.144 13.0196 10.9968 12.8336 10.9305C12.7161 10.8882 12.5727 10.8273 12.3657 10.8508C12.1587 10.8742 11.9542 11.0236 11.8352 11.2C11.7224 11.3672 11.2682 11.9033 11.1297 12.0609C11.1279 12.0598 11.1399 12.0653 11.0852 12.0383C10.914 11.9535 10.7045 11.8815 10.3946 11.718C10.0846 11.5545 9.69695 11.3131 9.27271 10.9391V10.9383C8.64126 10.3824 8.19896 9.68444 8.05942 9.45C8.06882 9.43881 8.05831 9.45236 8.07817 9.43281L8.07896 9.43203C8.22156 9.29157 8.34794 9.12381 8.45474 9.00078C8.60615 8.82634 8.67297 8.67257 8.74536 8.5289C8.88963 8.24257 8.8093 7.92749 8.72583 7.76171V7.76093C8.73159 7.7724 8.68068 7.66006 8.62583 7.53047C8.57083 7.4005 8.50071 7.23201 8.42583 7.05234C8.27606 6.693 8.10886 6.28996 8.00942 6.0539V6.05312C7.89229 5.77507 7.73381 5.57476 7.52661 5.47812C7.31942 5.38148 7.13636 5.40896 7.12896 5.40859H7.12817C6.98032 5.40177 6.81806 5.4 6.65708 5.4ZM6.65708 6.2C6.8113 6.2 6.96333 6.20188 7.09067 6.20781C7.22167 6.21434 7.21352 6.21487 7.18833 6.20312C7.16273 6.19118 7.19746 6.18731 7.27192 6.36406C7.36929 6.5952 7.53732 6.9997 7.68755 7.36015C7.76266 7.54038 7.83297 7.70952 7.88911 7.84218C7.94526 7.97484 7.97568 8.04891 8.01099 8.11953V8.12031L8.01177 8.12109C8.04638 8.18939 8.04332 8.14566 8.0313 8.16953C7.94689 8.33706 7.93543 8.37819 7.85005 8.47656C7.72004 8.62633 7.58743 8.79336 7.51724 8.8625C7.45582 8.92282 7.34502 9.01681 7.27583 9.20078C7.20654 9.38503 7.23888 9.63782 7.35005 9.82656C7.49806 10.0778 7.98581 10.8717 8.7438 11.5391C9.22115 11.9599 9.66587 12.2384 10.0211 12.4258C10.3764 12.6132 10.6658 12.7226 10.7305 12.7547C10.8843 12.8308 11.0523 12.8899 11.2477 12.8664C11.4431 12.8429 11.6116 12.7244 11.7188 12.6031L11.7196 12.6023C11.8623 12.4405 12.2864 11.9563 12.4899 11.6578C12.4985 11.6608 12.4957 11.6585 12.5633 11.6828V11.6836H12.5641C12.595 11.6946 12.9818 11.8677 13.3266 12.032C13.6715 12.1964 14.0215 12.3671 14.1352 12.4234C14.2993 12.5047 14.3769 12.5575 14.3969 12.5578C14.3983 12.593 14.3996 12.6311 14.3946 12.6891C14.3806 12.8497 14.3376 13.0721 14.2516 13.3102C14.2095 13.4267 13.9901 13.6671 13.7133 13.8422C13.4366 14.0173 13.0998 14.141 12.975 14.1594C12.6 14.2146 12.1547 14.2348 11.6657 14.0812C11.3266 13.9748 10.9038 13.837 10.3563 13.6039C9.24597 13.1304 8.30229 12.3246 7.62817 11.6148C7.29112 11.26 7.02107 10.9296 6.82896 10.6797C6.6372 10.4302 6.55346 10.3004 6.48364 10.2086L6.48286 10.2078C6.35893 10.0439 5.60005 8.98834 5.60005 8.0375C5.60005 7.03119 6.06745 6.63657 6.32036 6.36406C6.45314 6.22099 6.5983 6.2 6.65708 6.2Z" fill="#0BC71E"/>
</svg>
